<svg width="34" height="33" fill="none" xmlns="http://www.w3.org/2000/svg"><path d="M17.79 2.284h-2.73c-1.095 0-2.178-.154-3.27-.17-.498-.007-.986-.113-1.484-.113H8.222c-1.12 0-2.367.137-3.346.691-.166.094-.745.417-.906.55-.302.25-.46.591-.708.883-.496.585-.762 1.376-.84 2.272 0 .344-.057.755-.102 1.097-.089.665-.261 1.364-.261 2.03 0 .66-.059 1.312-.059 1.976v9.448m0 .002c0 1.097.022 2.136.118 3.22.033.369 0 .748 0 1.125 0 .166-.025.436 0 .65.137 1.177 0 1.933.882 3.056.882 1.124 1.818 1.331 2 1.5 1 .5 2.096.654 3 .654h8.21m0 .022c2.278 0 4.577.075 6.854 0 .651-.021 1.306-.056 1.963-.056.614 0 1.217-.112 1.833-.112h1.39c.192 0 .387.01.58 0 .214-.01.388-.163.587-.224.44-.135 1.044-.27 1.395-.572.155-.133.228-.398.317-.575.226-.45.39-.895.548-1.365.312-.927.322-2.06.322-3.028 0-1.076-.058-2.146-.058-3.219 0-.901-.118-1.762-.118-2.658" stroke="#FFE249" stroke-width="3" stroke-linecap="round" stroke-linejoin="round"/><path d="M17.754 2.31c.959 0 3.458-.158 4.412-.224.91 0 1.813-.057 2.721-.057 1.902 0 3.933-.3 5.39 1.08.626.591 1.07 1.673 1.198 2.488.217 1.368.184 2.816.184 4.2 0 .794.21 1.321.21 2.484.095.417.03.888.03 1.31v1.488c0 .698-.042 1.323-.03 2.019.016.985 0 2.07.03 3.061m-15.035-8.681c-1.272 0-2.535.186-3.707.682-.586.248-.962.806-1.361 1.255a2.67 2.67 0 00-.526.97c-.169.654-.433 1.262-.532 1.943-.138.945.014 1.878.148 2.82.036.25.03.416.155.622.234.387.48.768.775 1.116.927 1.09 2.053 2.022 3.501 2.377.389.095.853.032 1.254.032.83 0 1.674-.015 2.473-.258 1.127-.343 2.041-1.024 2.787-1.884.408-.47.83-.99 1.092-1.552.244-.527.205-1.06.283-1.616.103-.739.159-1.282.05-2.04-.113-.784-.407-1.428-.825-2.103-.303-.488-.665-.998-1.092-1.402-.419-.396-1.072-.542-1.621-.704-1.064-.315-2.35-.258-3.46-.258m9.427-3.393v-.346" stroke="#FFE249" stroke-width="3" stroke-linecap="round" stroke-linejoin="round"/></svg>