<svg width="72" height="32" fill="none" xmlns="http://www.w3.org/2000/svg"><g clip-path="url(#clip0)"><path d="M34.991 21.89l.01.008.012.009c.039.029.073.06.112.097-2.931 2.064-6.164 2.685-9.605 1.722-3.534-.99-5.96-3.302-7.373-6.718a10.777 10.777 0 01-.765-3.644v-.009 0-.002 0-.002 0-.002 0-.002 0-.002 0-.015 0-.002 0-.002 0-.002 0-.002 0-.002 0-.015 0-.002 0-.002 0-.002 0-.002 0-.016 0-.002 0-.002 0-.002 0-.002 0-.002 0-.014 0-.003 0-.002 0-.002 0-.002 0-.016 0-.002 0-.002 0-.002 0-.002 0-.016 0-.002 0-.002 0-.002 0-.002 0-.002 0-.014 0-.002 0-.002 0-.002 0-.002 0-.002 0-.014 0-.002 0-.002 0-.002 0-.002 0-.017 0-.002 0-.002 0-.002 0-.002 0-.002 0-.014 0-.002 0-.002 0-.002 0-.002 0-.002 0-.015 0-.002 0-.002 0-.002 0-.002 0-.016 0-.002 0-.002 0-.002 0-.002 0-.002 0-.014 0-.002 0-.002 0-.002 0-.002 0-.002 0-.015 0-.002 0-.002 0-.002 0-.002 0-.015 0-.002 0-.002 0-.002 0-.002 0-.002 0-.015 0-.002 0-.002 0-.002 0-.002 0-.002 0-.015 0-.002 0-.002 0-.002 0-.002 0-.016 0-.002 0-.002 0-.002 0-.002 0-.002 0-.014 0-.002 0-.002 0-.002 0-.002 0-.002 0-.015 0-.002 0-.002 0-.002 0-.002 0-.016 0-.002 0-.002 0-.002 0-.002a.41.41 0 01.004-.048c0-.003 0-.009.002-.016l.009-.076a.808.808 0 00-.011-.25.513.513 0 00.04-.161v-.002c.086-1.218.3-2.375.764-3.482h0l.003-.008c1.534-3.914 5.107-6.707 9.27-7.144.069 0 .188 0 .319-.044h1.587a.436.436 0 00.147.042c.108.015.223.026.328.036l.137.014c.146.016.275.035.397.07l.023.007.023.004a10.62 10.62 0 014.719 2.01 13.322 13.322 0 00-1.608 1.69 11.288 11.288 0 00-2.186 4.368 11.322 11.322 0 00-.41 3.487c0 .589.046 1.194.185 1.763.227 1.277.636 2.515 1.274 3.666l.004.008.005.007c.676 1.093 1.537 2.192 2.584 3.112z" fill="#FF3857" stroke="#FF3857" stroke-width=".764"/><path d="M35.728 22.002c-.176-.089-.352-.267-.484-.4a11.644 11.644 0 01-2.512-3.16c-.617-1.112-1.014-2.313-1.234-3.559a22.022 22.022 0 01-.176-1.69c-.044-1.158.088-2.27.396-3.383.397-1.557 1.146-2.98 2.116-4.227a13.1 13.1 0 011.718-1.78.61.61 0 01.176-.133c.177.044.265.178.397.311a12.79 12.79 0 011.939 2.136A11.355 11.355 0 0139.65 9.41c.22.667.353 1.335.441 2.002.088.668.088 1.335.088 2.003-.044.934-.22 1.868-.485 2.758a13.41 13.41 0 01-.793 2.003c-.44.845-.97 1.646-1.586 2.358-.44.49-.926.979-1.454 1.424-.044 0-.088.044-.133.044z" fill="#EB692C"/><path d="M24.184 30.323c0 .09-.044.09-.088.09h-.485c-.088 0-.132-.045-.132-.134v-1.826c-.088-.4-.308-.578-.66-.578-.397 0-.662.223-.706.623-.044.178 0 .4 0 .578v1.246c0 .09-.044.134-.132.134h-.44c-.089 0-.133-.045-.133-.134v-1.557c0-.134 0-.223-.044-.356-.088-.311-.264-.49-.573-.534-.352-.045-.617.133-.749.445-.044.133-.044.267-.044.445v1.513c0 .133-.044.178-.176.133h-.44c-.089 0-.089 0-.089-.089V27.43c0-.089.044-.089.088-.089h.485c.088 0 .088 0 .088.089v.223c.485-.623 1.498-.49 1.85.088.045.09.089.045.133 0 .397-.533 1.146-.534 1.542-.355.441.177.617.534.661.979.044.622.044 1.29.044 1.957zM52.65 26.14c0-.089 0-.089-.088-.089h-.44c-.09 0-.133 0-.133.134v1.468c-.573-.667-1.63-.49-2.115.134-.353.445-.441.89-.309 1.424.177.845.926 1.379 1.763 1.245.264-.044.485-.178.705-.445v.267c0 .09 0 .134.088.09h.485c.088 0 .088 0 .088-.09-.044-1.379-.044-2.758-.044-4.138zm-.705 3.026c-.088.356-.309.534-.661.623-.617.133-1.146-.312-1.146-.979a.99.99 0 01.573-.934c.352-.134.793-.045 1.014.222.308.356.352.712.22 1.068z" fill="#fff"/><path d="M54.457 12.169v1.468c-.044 0-.044.045-.044.09-.044.667-.176 1.334-.308 2.002-1.41 5.65-6.83 9.388-12.56 8.676-1.85-.222-3.569-.89-5.155-1.957-.22-.134-.441-.312-.661-.445v-.045c.044 0 .044-.044.088-.044.529-.4 1.013-.89 1.454-1.424a12.238 12.238 0 001.586-2.359c.353-.622.573-1.334.794-2.002.264-.89.44-1.824.484-2.759.044-.667 0-1.335-.088-2.002a10.885 10.885 0 00-.44-2.002 11.925 11.925 0 00-1.587-3.293c-.573-.801-1.19-1.513-1.939-2.136-.132-.089-.22-.222-.396-.311V3.58l.088-.089c1.674-1.29 3.525-2.047 5.64-2.314.22-.044.44-.044.617-.089h1.675c0 .045.044.045.088.045.617.044 1.278.133 1.895.311 2.644.712 4.759 2.136 6.433 4.316 1.234 1.647 1.983 3.56 2.248 5.607.044.312.044.578.088.8z" fill="#FF9000"/><path d="M46.835 27.609c0-.356 0-.356-.352-.356-.309 0-.309 0-.353.356-.573-.445-1.058-.534-1.63-.267-.882.4-1.146 1.602-.617 2.447.528.801 1.718.89 2.203.267h.044v.223c0 .089.044.089.088.089h.397c.132 0 .176-.045.176-.178.044-.846.044-1.691.044-2.581zm-1.322 2.225c-.617.133-1.146-.267-1.146-.98 0-.444.22-.8.573-.934.353-.133.794-.044 1.014.223.484.534.22 1.513-.44 1.69zM27.93 27.342c-.088-.045-.265-.045-.397-.045-.264 0-.264 0-.264.267v.134c-.485-.579-1.278-.534-1.719-.223-.617.4-.837.98-.75 1.691.089.935 1.014 1.558 1.896 1.29.22-.044.396-.177.573-.4v.223c0 .089 0 .133.132.133h.44c.089 0 .133-.044.133-.133v-2.581c0-.134.044-.312-.044-.356zm-1.807 2.447c-.44-.133-.705-.623-.617-1.157.088-.534.485-.845 1.014-.8.484.044.837.444.837.978-.044.712-.573 1.157-1.234.98zm11.59-1.246c-.088-.89-.882-1.468-1.763-1.29-.617.133-.97.49-1.146 1.068-.176.667-.088 1.246.397 1.735.529.534 1.542.534 2.203.09.088-.09.133-.134.044-.223a.946.946 0 01-.176-.267c-.044-.09-.088-.09-.176-.045a1.617 1.617 0 01-.925.267c-.397-.044-.706-.267-.794-.623 0-.089 0-.133.088-.133h2.028c.088 0 .132-.045.132-.134.132-.133.088-.267.088-.445zm-.793.045h-1.366c-.089 0-.089-.045-.089-.134.089-.4.397-.623.794-.623.396 0 .66.223.749.623.044.09 0 .134-.088.134zM31.103 30.1c-.264.268-.573.357-.925.401-.53.045-1.014-.044-1.455-.311-.088-.045-.088-.09-.044-.178.088-.09.133-.223.177-.312.044-.089.088-.089.132-.044.396.267.837.311 1.278.222a.335.335 0 00.22-.089c.176-.133.132-.356-.044-.445-.176-.089-.352-.089-.529-.133-.22-.045-.485-.09-.705-.178-.308-.134-.529-.356-.529-.712s.133-.623.397-.846c.264-.178.573-.222.925-.222.353 0 .705.089 1.058.267.088.044.132.089.044.178-.088.133-.132.311-.22.4-.088.045-.265-.089-.397-.133-.264-.09-.529-.134-.837-.045-.044 0-.132.045-.177.045a.3.3 0 00-.176.267c0 .133.088.178.22.222.265.09.53.09.75.134.176.044.352.089.485.178.66.222.749.89.352 1.335zm3.129.179c-.441.222-.882.267-1.367.089-.308-.134-.396-.4-.44-.712-.044-.445 0-.89-.044-1.335 0-.134.044-.312-.044-.4-.088-.09-.265-.045-.397-.045-.22 0-.22 0-.22-.223 0-.133-.044-.311 0-.355.088-.09.22 0 .352-.045.22 0 .22 0 .22-.223v-.578c0-.089 0-.133.089-.133h.484c.089 0 .089.044.089.089v.711c0 .09.044.134.132.134h.881c.088 0 .132.044.132.134v.4c0 .089-.044.134-.132.134h-.837c-.132 0-.176 0-.176.133v1.29c0 .4.22.534.617.49.132-.045.264-.045.352-.134.044-.044.088 0 .132.045l.133.4c.132.09.132.134.044.134zm8.99-.312c.088.134.044.178-.089.267-.793.49-1.894.267-2.335-.49-.309-.578-.353-1.156 0-1.735.308-.578.837-.756 1.454-.756.353 0 .705.089.97.311.088.045.088.09.044.178-.088.134-.133.223-.22.356-.045.09-.089.09-.133.045-.264-.178-.529-.267-.837-.223-.529.09-.881.534-.793 1.068.088.712.66 1.068 1.366.846.088-.045.132-.045.22-.09.132-.088.22-.088.264.09 0-.045.045.044.089.133zm-2.909-2.536l-.132.4c-.044.09-.044.134-.176.09h-.089c-.572-.09-.881.133-.881.756v1.646c0 .09 0 .134-.132.134h-.44c-.089 0-.089 0-.089-.09v-2.892c0-.088 0-.088.088-.088h.44c.089 0 .133.044.133.133v.267c.309-.445.705-.49 1.146-.4.132-.09.22-.09.132.044zm9.297-.001a5.628 5.628 0 00-.131.446c0 .089-.044.089-.133.044-.132-.044-.264-.044-.44-.044-.309.044-.53.267-.53.623v1.557c0 .356 0 .356-.352.356s-.352 0-.352-.356v-2.625c0-.134.044-.134.132-.134h.44c.089 0 .089 0 .089.09v.222c.308-.4.705-.445 1.19-.356.088.044.132.044.088.178z" fill="#fff"/></g><defs><clipPath id="clip0"><path fill="#fff" transform="translate(17 1)" d="M0 0h37.457v29.813H0z"/></clipPath></defs></svg>