<svg width="12" height="12" fill="none" xmlns="http://www.w3.org/2000/svg"><path d="M4.79 1.407c.405-1.139 2.015-1.139 2.42 0a1.283 1.283 0 001.627.784c1.142-.394 2.146.865 1.508 1.89a1.283 1.283 0 00.402 1.762c1.02.648.662 2.217-.538 2.358-.7.082-1.202.713-1.126 1.413.13 1.201-1.321 1.9-2.18 1.05a1.283 1.283 0 00-1.806 0c-.859.85-2.31.151-2.18-1.05.076-.7-.427-1.33-1.126-1.413-1.2-.14-1.558-1.71-.538-2.358a1.283 1.283 0 00.402-1.761c-.638-1.026.366-2.285 1.508-1.891.666.23 1.392-.12 1.628-.784z" fill="#fff"/></svg>