<svg width="34" height="35" fill="none" xmlns="http://www.w3.org/2000/svg"><path d="M14.827 19.276c.847-.847 1.548-1.83 2.415-2.662.669-.642 1.18-1.432 1.856-2.07.462-.436.925-.906 1.312-1.412.695-.91 1.666-1.602 2.463-2.415.942-.96 1.863-1.96 2.84-2.886.84-.797 1.752-1.498 2.577-2.311.398-.392.827-.78 1.268-1.122.324-.25.538-.645.868-.867.533-.36.994-.893 1.572-1.182m0 .001c0 .549.03 1.093-.133 1.625-.276.901-.596 1.787-.886 2.683a83.629 83.629 0 01-1.423 4.09 41.711 41.711 0 00-1.23 3.758c-.257.929-.465 1.86-.8 2.764-1.103 2.979-1.787 6.079-2.528 9.157a13.854 13.854 0 01-.659 1.973c-.255.62-.407 1.296-.636 1.927-.188.515-.431 1.07-.534 1.61-.046.239-.195.948-.195.704m-8.294-13.42c.017.765.53 1.355.879 2.011.71 1.339 1.41 2.7 2.309 3.924.317.432.678.82.948 1.285.209.36.44.699.67 1.046.559.848 1.197 1.642 1.753 2.493.345.53.672 1.06 1.03 1.58.173.252.392.485.558.734M14.34 19.176c-.608-.011-1.219-.256-1.775-.488a13.003 13.003 0 01-2.127-1.122 20.62 20.62 0 00-3.03-1.663c-1.227-.54-2.49-1.19-3.599-1.944-.385-.261-.762-.57-1.176-.783-.072-.037-.535-.244-.39-.244M2 12.72c2.075-1.038 2.683-1.418 3.993-2.054 1.112-.541 2.243-1.034 3.37-1.542 1.01-.455 1.986-.983 3.003-1.42 2.02-.87 4.069-1.626 6.141-2.369 2.914-1.045 5.921-1.77 8.938-2.444 1.01-.226 2.003-.49 3.018-.697.328-.066.71-.192 1.047-.192" stroke="#FF3857" stroke-width="3" stroke-linecap="round" stroke-linejoin="round"/></svg>