<svg width="72" height="32" fill="none" xmlns="http://www.w3.org/2000/svg"><g clip-path="url(#clip0)" fill="#fff"><path d="M63.594 4.251h-4.368c-1.433 0-2.292.572-2.865 1.93-2.65 6.294-5.3 12.658-7.95 18.951-.07.143-.07.215-.142.43h5.299c.358 0 .573-.072.716-.502.287-.93.645-1.787 1.003-2.717h7.018c.215.93.43 1.93.573 2.86.072.215.143.358.358.358h4.798c-1.504-7.15-2.936-14.23-4.44-21.31zm-6.803 13.73c1.002-2.646 1.933-5.292 2.936-8.01.573 2.718 1.074 5.293 1.647 8.01h-4.583zM25.208 4.251c-.143.43-.358.858-.501 1.216-2.65 6.579-5.371 13.086-8.02 19.665-.073.286-.216.358-.502.358h-5.443c-.43-1.502-.788-3.004-1.217-4.505L5.872 7.255c-.071-.143-.214-.286-.358-.43C3.94 5.896 2.22 5.253.43 4.753c-.144 0-.287-.072-.43-.072 0-.143.072-.286.072-.429h9.095c1.289.072 2.005.715 2.22 1.931.787 4.076 1.647 8.152 2.435 12.228 0 .072.071.143.071.286.215-.643.43-1.144.645-1.716 1.504-4.148 3.08-8.295 4.583-12.443.072-.286.215-.357.501-.357h5.586v.071zm16.114 5.006c-.573.5-.573 1.287 0 1.787.43.43 1.003.787 1.575 1.073.86.5 1.79.93 2.65 1.502 1.074.643 2.005 1.43 2.578 2.574.931 1.86.717 3.719-.215 5.435-.859 1.716-2.363 2.789-4.225 3.432-1.862.644-3.795.859-5.729.716-1.575-.072-3.08-.358-4.583-.93-.502-.143-.502-.143-.43-.715.215-1.43.43-2.86.716-4.29.358.142.645.285 1.003.428 1.504.715 3.08 1.073 4.726 1.001.717 0 1.433-.071 2.149-.357.286-.143.501-.286.716-.43.788-.643.86-1.716.072-2.36-.573-.5-1.218-.857-1.934-1.286-.931-.572-1.934-1.073-2.793-1.645-1.146-.787-2.077-1.86-2.363-3.29-.358-2.073.215-3.933 1.718-5.434 1.218-1.287 2.793-2.003 4.512-2.36 2.578-.572 5.085-.358 7.52.5.071 0 .215.072.358.143-.215 1.502-.502 3.004-.716 4.506-.717-.215-1.433-.5-2.149-.715-1.36-.358-2.721-.43-4.082-.072-.286.215-.716.43-1.074.787zm-8.379-5.006c-.215 1.144-.358 2.289-.573 3.361-.5 3.147-1.002 6.365-1.575 9.511-.43 2.717-.86 5.435-1.36 8.152 0 .072-.144.215-.216.215h-5.228s-.071 0-.071-.072L27.357 4.18h5.586v.071z"/></g><defs><clipPath id="clip0"><path fill="#fff" transform="translate(0 3.822)" d="M0 0h68.034v22.168H0z"/></clipPath></defs></svg>