<svg width="36" height="36" fill="none" xmlns="http://www.w3.org/2000/svg"><path d="M33.852 14.519v3.737c.202 1.387.122 2.009.122 3.432v2.93c.016 1.25.106 3.053-.18 4.21-.229.924-.666 1.949-1.22 2.728-1.022 1.44-3.064 1.68-4.53 2.082-.497.136-3.46.11-3.963.22-.55.059-1.633 0-2.264.057-.567.086-1.828.086-2.255.086-.463 0-1.947-.086-2.416-.086h-5.044c-1.954 0-4.384-.238-6.179-1.115-.646-.315-1.388-.542-1.912-1.054-.823-.804-1.377-1.715-1.64-2.849C2.136 27.89 2 26.994 2 25.947c0-1.226.098-1.953.098-3.716v-5.815c0-1.978.015-4.282.273-6.231.295-2.24-.187-3.256.725-5.223.47-1.012 1.08-1.287 1.66-1.63.464-.276.552-.36 1.47-.72.974-.382 1.334-.338 1.827-.338 3.446 0 9.895-.48 13.323-.168 2.053.187 3.594-.191 5.806.042 1.303.137 3.058.701 3.852 1.362 1.08.9 1.605 1.384 2.08 2.673.321.872.566 1.607.566 2.587v3.491c0 .776.172 1.496.172 2.258z" fill="#FF3857" stroke="#426DE0" stroke-width="3" stroke-linecap="round" stroke-linejoin="round"/><path d="M14.736 11.009c.57.015 1.275.414 1.768.695.519.296 1.266.763 1.81.99.967.406 1.588.851 2.52 1.347.693.37 1.45.733 2.088 1.218.56.426 1.034.999 1.517 1.53.187.207.399.564.468.856.196.827.098.924-.45 1.55-.275.313-.648.555-.976.79-.505.36-.953.823-1.454 1.193-.48.355-.925.796-1.425 1.118-.33.213-.68.418-.98.685-.703.625-1.577.95-2.338 1.447-.654.426-1.219.573-1.973.573-.652 0-1.688-.34-1.825-1.154-.19-1.123-.09-2.262-.235-3.386-.14-1.088-.159-2.187-.225-3.282-.091-1.512.087-3.006.087-4.527 0-.395.183-1.052.505-1.227.456-.246.67-.424 1.118-.424" stroke="#426DE0" stroke-width="3" stroke-linecap="round" stroke-linejoin="round"/></svg>