<svg width="26" height="25" fill="none" xmlns="http://www.w3.org/2000/svg"><path d="M13.592 1.962h-2.047c-.822 0-1.634-.115-2.453-.127-.373-.006-.739-.085-1.113-.085H6.416c-.84 0-1.775.102-2.509.518-.124.07-.559.313-.68.413-.226.187-.345.443-.53.662-.373.439-.572 1.032-.63 1.704 0 .258-.043.566-.077.822-.067.5-.196 1.024-.196 1.523 0 .496-.044.984-.044 1.482v7.086m0 .003c0 .822.016 1.601.089 2.414.024.277 0 .562 0 .845 0 .124-.019.326 0 .486.102.884 0 1.45.661 2.293.661.843 1.363.998 1.5 1.125.75.375 1.572.49 2.25.49h6.158m-.002.015c1.71 0 3.433.056 5.141 0 .488-.016.98-.042 1.472-.042.46 0 .913-.084 1.375-.084h1.042c.144 0 .29.007.435 0 .16-.008.291-.122.44-.168.331-.1.783-.203 1.047-.429.116-.1.17-.299.237-.431.17-.337.292-.672.411-1.024.235-.695.242-1.544.242-2.271 0-.807-.044-1.61-.044-2.414 0-.676-.088-1.322-.088-1.994" stroke="#fff" stroke-width="2.145" stroke-linecap="round" stroke-linejoin="round"/><path d="M13.565 1.98c.719 0 2.593-.118 3.308-.168.683 0 1.36-.042 2.041-.042 1.427 0 2.95-.225 4.043.81.47.443.802 1.255.898 1.866.163 1.026.138 2.112.138 3.15 0 .595.158.99.158 1.863.071.312.022.666.022.983v1.115c0 .524-.031.993-.022 1.514.012.739 0 1.552.022 2.296M12.899 8.856c-.954 0-1.901.14-2.78.512-.44.186-.722.604-1.021.942a2.003 2.003 0 00-.394.726c-.127.491-.325.947-.4 1.459-.103.708.011 1.408.112 2.115.026.188.022.311.116.466.175.29.36.576.581.836.695.819 1.54 1.517 2.626 1.784.291.071.64.024.94.024.623 0 1.255-.012 1.855-.194.845-.257 1.531-.768 2.09-1.413.306-.353.623-.742.819-1.164.183-.395.154-.795.212-1.212.078-.554.12-.961.038-1.53-.084-.588-.305-1.071-.62-1.577-.226-.366-.497-.748-.818-1.052-.314-.297-.804-.406-1.215-.528-.799-.236-1.763-.194-2.596-.194m7.07-2.544v-.26" stroke="#fff" stroke-width="2.145" stroke-linecap="round" stroke-linejoin="round"/></svg>