<svg width="22" height="25" fill="none" xmlns="http://www.w3.org/2000/svg"><path d="M6.381 18.464c-.738 0-1.496-.06-2.216.119-.81.2-2.112.705-2.5 1.487-.313.629-.084 1.12-.084 1.802 0 .452.526 1.244.948 1.445 1.09.52 2.38-.161 3.13-.875.665-.634.81-1.337 1.079-2.18.304-.954.256-1.902.405-2.873.196-1.27.201-2.633.201-3.915 0-1.396-.062-2.498-.062-4.207 0-4.113 0-3.914 1.591-4.692 1.366-.667.898-.433 2.297-.99.802-.317 1.256-.424 2.13-.756.35-.133 1.446-.35 1.773-.429.444-.106.9-.151 1.347-.246 1.21-.26 2.068-.404 3.291-.404.478 0 .762.077.999.497.35.62.285 1.669.285 2.367v4.59c0 .765.011 1.513-.061 2.27-.076.797-.004 1.638-.004 2.439 0 1.106-.003 2.274-.173 3.366-.24 1.55-.778 3.163-2.033 4.245-.93.802-2.707 1.197-3.582.056-.63-.822-1.007-1.429-.833-2.503.185-1.147 1.404-1.778 2.279-2.236.612-.32 2.71-.67 3.472-.67" stroke="#fff" stroke-width="1.935" stroke-linecap="round" stroke-linejoin="round"/></svg>