<svg width="24" height="25" fill="none" xmlns="http://www.w3.org/2000/svg"><path d="M10.435 13.906c.622-.622 1.137-1.344 1.774-1.954.491-.472.867-1.053 1.363-1.52.34-.321.68-.666.963-1.038.51-.668 1.223-1.176 1.81-1.773.691-.705 1.367-1.44 2.085-2.12.617-.585 1.287-1.1 1.893-1.697.291-.288.607-.573.93-.824.239-.184.395-.473.638-.637.391-.264.73-.656 1.154-.867m.002 0c0 .403.023.803-.098 1.194-.203.662-.437 1.312-.65 1.97a61.329 61.329 0 01-1.045 3.003 30.644 30.644 0 00-.904 2.76c-.188.682-.34 1.366-.587 2.03-.81 2.188-1.312 4.464-1.857 6.725-.116.483-.294.99-.483 1.449-.187.455-.3.951-.468 1.415-.137.378-.316.785-.392 1.182-.033.176-.143.696-.143.517m-6.092-9.856c.012.562.39.995.645 1.477.522.983 1.035 1.982 1.695 2.882.233.317.499.601.697.943.153.264.323.513.492.768.41.623.88 1.206 1.287 1.831.254.389.494.779.756 1.16.128.186.289.357.41.54m-6.232-9.634c-.447-.008-.895-.188-1.303-.358a9.551 9.551 0 01-1.563-.824 15.144 15.144 0 00-2.225-1.222c-.9-.396-1.828-.873-2.643-1.427-.282-.192-.559-.418-.863-.575-.053-.027-.393-.179-.287-.179m-.178-.157c1.524-.761 1.97-1.04 2.932-1.508.817-.397 1.647-.76 2.475-1.132.742-.334 1.458-.722 2.205-1.043 1.484-.638 2.988-1.194 4.51-1.74 2.14-.767 4.348-1.3 6.563-1.795.743-.165 1.472-.36 2.218-.511.24-.049.52-.141.768-.141" stroke="#fff" stroke-width="1.875" stroke-linecap="round" stroke-linejoin="round"/></svg>