<svg width="26" height="26" fill="none" xmlns="http://www.w3.org/2000/svg"><path d="M24.889 10.39v2.803c.152 1.04.092 1.506.092 2.573v2.198c.011.937.08 2.29-.136 3.157-.171.694-.5 1.462-.914 2.046-.767 1.08-2.299 1.26-3.397 1.561-.374.103-2.595.083-2.973.165-.413.045-1.225 0-1.698.044-.425.064-1.371.064-1.691.064h0c-.348 0-1.46-.064-1.813-.064H8.577c-1.466 0-3.289-.179-4.635-.837-.484-.236-1.04-.406-1.434-.79-.617-.603-1.032-1.286-1.23-2.137C1.102 20.418 1 19.746 1 18.961c0-.92.074-1.465.074-2.787v-4.361c0-1.484.01-3.213.204-4.674.222-1.68-.14-2.442.544-3.917.352-.76.81-.966 1.245-1.223.348-.207.414-.27 1.103-.54.73-.286 1-.253 1.37-.253 2.585 0 7.421-.36 9.992-.126 1.54.14 2.696-.144 4.355.031.977.103 2.293.526 2.889 1.022.81.675 1.203 1.038 1.56 2.004.24.655.424 1.206.424 1.941v2.618c0 .582.129 1.122.129 1.693z" stroke="#fff" stroke-width="1.899" stroke-linecap="round" stroke-linejoin="round"/><path d="M10.552 7.76c.428.011.956.31 1.326.522.39.222.95.572 1.357.743.726.303 1.192.637 1.89 1.01.52.276 1.088.549 1.567.913.42.319.775.749 1.137 1.148.14.155.3.422.351.641.147.62.074.693-.337 1.162-.207.236-.486.417-.733.592-.378.27-.714.619-1.09.896-.36.266-.694.597-1.069.838-.248.16-.509.314-.734.514-.528.468-1.183.713-1.754 1.085-.49.32-.914.43-1.48.43-.49 0-1.266-.256-1.368-.866-.142-.842-.068-1.696-.177-2.539-.105-.816-.119-1.64-.168-2.461-.069-1.135.065-2.255.065-3.396 0-.296.137-.789.379-.92.341-.184.502-.318.838-.318" stroke="#fff" stroke-width="1.899" stroke-linecap="round" stroke-linejoin="round"/></svg>