<svg width="424" height="183" fill="none" xmlns="http://www.w3.org/2000/svg"><path d="M80.374 69.707c9.983-2.877 9.5-17.185-.654-19.383l-35.868-7.765c-11.245-2.434-11.677-18.317-.581-21.36L117.21.925a9.998 9.998 0 012.626-.356l289.135-.54C417.267.013 424 6.733 424 15.028V168c0 8.284-6.716 15-15 15H119.702c-.798 0-1.594-.096-2.37-.285l-75.958-18.527c-11.036-2.692-11.248-18.31-.288-21.299l40.063-10.929c9.963-2.717 9.771-16.915-.262-19.362l-40.7-9.928c-10.955-2.672-11.274-18.134-.439-21.256l40.626-11.707z" fill="#FAF1EF"/><path d="M363.165 23.627c0 3.191-.502 6.786.721 9.81 1.198 2.964 3.539 5.301 5.766 7.489a134.996 134.996 0 018.369 9.01c2.482 2.923 4.316 5.98 6.387 9.19 1.852 2.87 2.863 4.268 3.866 7.55 1.092 3.574 2.736 7.281 3.083 11.013.429 4.612.361 9.204.361 13.835 0 5.166-3.139 10.168-6.047 14.276-2.56 3.617-6.05 6.508-9.451 9.29-2.683 2.196-6.805 1.682-10.011 1.682-1.517 0-3.071.092-4.585-.02-1.444-.107-2.696-1.002-4.064-1.421-3.431-1.052-6.856-3.207-10.011-4.886-5.059-2.691-10.304-5.515-13.315-10.611-1.34-2.268-3.294-4.342-4.145-6.848-1.878-5.53-1.162-9.32-1.162-15.12 0-4.825 2.131-10.827 4.865-14.776 2.472-3.57 4.137-8.073 7.108-11.272 1.335-1.438 2.772-2.732 4.165-4.125 1.011-1.011 1.68-2.132 2.603-3.163 1.773-1.982 1.342-4.807 2.342-7.008 1.641-3.61 1.703-7.77 3.504-11.373.625-1.25 2.528-3.243 4.065-3.243 1.444 0 4.144-.69 4.144 1.081M369 25.244c0-1.735-.031-3.264.441-4.928.151-.535.238-1.275.66-1.675.371-.351 1.129-.596 1.596-.819.825-.395 1.659-.534 2.531-.831 1.07-.366 2.055-.85 3.21-.88a302.12 302.12 0 018.174-.111c1.943 0 3.76.279 5.619.795 1.004.279 1.93.617 2.971.77.783.115 1.554.39 2.311.612.637.186 1.334.246 1.92.574 1.003.562 1.402 2.033 1.81 3.014.934 2.252 2.033 4.423 2.763 6.756.584 1.864.837 3.767.966 5.71.185 2.768.24 5.566-.03 8.328-.258 2.631-.534 5.409-1.156 7.985-.327 1.356-.32 2.805-.819 4.12-.206.544-.432 1.183-.893 1.56-.543.444-1.247.674-1.81 1.07-1.635 1.15-4.684 1.038-6.383.19-1.812-.907-3.472-2.63-4.756-4.177-2.275-2.74-4.102-5.687-5.815-8.81-2.261-4.124-4.971-7.81-8.553-10.889-1.601-1.376-2.761-2.739-3.65-4.628-.379-.805-.776-1.627-.776-2.525 0-.255.133-1.089-.11-1.21m-21.955-7.688v3.21c0 1.204-.238 2.265-.486 3.437-.502 2.37-1.034 4.664-1.742 6.98-1.095 3.585-3.242 7.13-5.391 10.19-.871 1.241-1.666 2.347-2.844 3.283-1.686 1.338-3.376 2.677-5.001 4.088-1.257 1.091-2.47 2.173-3.869 3.08-1.737 1.129-3.297 2.504-4.989 3.698a36.71 36.71 0 01-4.686 2.82 19.573 19.573 0 01-6.186 1.926c-1.176.156-2.322.43-3.507.527-1.449.118-2.915.06-4.367.06-2.683 0-4.96-.632-7.246-2.027-1.732-1.057-3.427-2.257-4.769-3.798-1.06-1.216-1.652-2.576-2.234-4.058-.882-2.25-.949-4.728-1.013-7.122-.076-2.848.272-5.494 1.297-8.152a13.401 13.401 0 012.595-4.23c.835-.921 1.448-2.083 2.524-2.738 4.19-2.55 8.246-5.273 12.94-6.802 5.746-1.87 11.916-1.728 17.828-2.713a131.701 131.701 0 008.656-1.766c2.13-.503 4.254-1.07 6.411-1.47 1.099-.203 2.81-.402 3.839.084.435.205 1.235.354 1.493.805.1.174.397.833.534.901m-105.205-.022c2.056 0 4.099.189 6.144.37 2.106.188 4.281.156 6.396.156 2.92 0 5.84.088 8.757.088 1.303 0 2.515-.288 3.798-.439 2.987-.351 5.97-.667 8.957-.985 2.402-.255 4.82-.507 7.24-.507 1.405 0 2.812-.012 4.217 0 .597.006 1.494.064 1.882.595.735 1.006 1.668 1.9 1.668 3.223 0 .839.083 1.714-.195 2.52-.185.535-.365 1.245-.727 1.688-.476.582-1.042 1.093-1.492 1.716-.649.899-1.156 1.86-1.731 2.808-.391.646-.595 1.386-.906 2.072-.667 1.467-1.42 2.908-1.926 4.442-1.145 3.472-1.432 7.32-1.448 10.96-.009 1.788.078 3.634-.663 5.295-.25.56-.421 1.135-.985 1.365-2.983 1.22-5.755 2.7-8.952 3.326-1.531.3-3.136.273-4.69.273-2.189 0-4.405.067-6.563-.37-3.946-.801-7.648-2.579-11.267-4.277a18.776 18.776 0 01-6.587-5.095c-.73-.88-1.286-1.887-1.96-2.808a26.562 26.562 0 01-1.96-3.062c-1.163-2.156-1.682-4.534-2.667-6.763-.793-1.793-1.199-3.718-1.536-5.64-.191-1.09-.351-2.231-.351-3.336 0-1.15.4-2.431.834-3.49.508-1.242 1.164-2.232 2.194-3.033.216-.169.771-.302 1.053-.302.344 0 .639-.176 1.009-.176 1.051 0 2.09-.351 3.159-.351m104.963 102.327c-1.472-.99-3.041-1.974-4.35-3.164-1.639-1.491-3.438-2.812-5.021-4.364-2.871-2.813-6.464-4.667-9.605-7.128-.957-.749-1.694-1.615-2.784-2.189-.871-.458-1.802-.795-2.794-.795-.806 0-1.751-.136-2.521.137-1.201.426-2.353 1.164-3.398 1.882-1.224.841-2.379 2-3.403 3.076-1.075 1.129-1.916 2.38-2.896 3.574-1.242 1.512-2.363 3.138-3.433 4.778-1.649 2.528-3.265 4.997-4.31 7.85-1.167 3.185-1.741 6.723-.487 9.946.95 2.443 2.595 4.844 5.075 5.924 1.708.744 3.392 1.363 5.212 1.78 1.679.384 3.339.37 5.051.37 2.15 0 4.278-.483 6.378-.897 2.577-.508 5.164-.907 7.762-1.292 4.35-.644 8.721-1.1 13.066-1.789 2.026-.322 4.069-.514 6.105-.761 1.677-.203 3.511-.385 5.065-1.097 1.08-.494 1.475-1.81 1.624-2.92.143-1.067.199-2.112-.205-3.131-1.342-3.388-4.972-5.11-7.635-7.289-.575-.47-1.086-1.038-1.663-1.487-.332-.258-1.009-.547-1.009-1.014m55.465 29.752c0-2.834-.03-5.632-.351-8.454-.326-2.864-.413-5.77-.834-8.62-.263-1.788-.325-3.67-.39-5.476-.072-2.039-.264-4.071-.482-6.099-.167-1.551-.431-3.099-.576-4.651-.109-1.178-.259-2.489-.794-3.56-1.212-2.422-3.176-4.792-6.178-4.378-.713.098-1.567.93-2.067 1.375-1.269 1.128-2.444 2.356-3.579 3.618a151.313 151.313 0 00-3.822 4.417c-1.182 1.419-2.368 2.901-3.793 4.076-.901.743-1.822 1.476-2.828 2.058-.668.385-1.542.614-2.126 1.121-.465.403-1.212.379-1.755.614-.445.193-.881.176-1.356.176-1.325 0-3.305-.174-4.037 1.185-.42.781-.925 1.524-1.326 2.325-.563 1.126-.892 2.336-1.404 3.481-.733 1.64-1.001 3.513-.912 5.295.056 1.109.543 1.875 1.136 2.765.991 1.486 2.178 2.542 3.608 3.603.776.575 1.619 1.032 2.443 1.531 1.051.636 2.063 1.319 3.193 1.814 1.967.86 3.99 1.559 5.958 2.418a26.599 26.599 0 013.452 1.828c1.642 1.029 3.338 1.827 5.11 2.609 2.043.9 4.047 1.852 6.168 2.559 1.313.438 2.958.752 4.334.425 1.2-.286 1.757-.918 2.175-1.999.326-.848 1.002-1.712 1.033-2.653.025-.73 0-1.463 0-2.194 0-.283.166-1.433-.088-1.56m-92.5 13.428c.026-1.787.326-3.386.702-5.12.316-1.453.582-2.953 1.073-4.359.239-.684.423-1.458.863-2.052.343-.463.923-.798 1.399-1.107 2.727-1.767 6.105-2.651 9.283-3.14 3.505-.539 7.008-1.064 10.503-1.667 2.684-.464 5.414-.988 8.054-1.668 1.577-.406 3.242-.283 4.856-.283h4.671c1.541 0 3.178.346 4.632.839 1.102.374 2.118 1.017 3.15 1.551 1.917.991 3.303 2.617 5.333 3.422.798.316 1.469.794 2.146 1.307.692.525 1.482.91 2.203 1.394.816.547 1.635 1.082 2.463 1.614.472.304 1.08.558 1.487.951.479.463.872 1.085 1.248 1.628.496.718 1.044 1.232 1.385 2.058.481 1.166.633 2.37.633 3.622 0 .834-.129 1.403-.746 2.019-.678.679-1.706 1.053-2.55 1.492-1.05.546-2.31.727-3.451.97-1.933.413-3.98.371-5.944.512-2.745.198-5.536.054-8.288.054-2.225 0-4.444-.199-6.665-.268a805.77 805.77 0 00-9.459-.254c-2.828-.055-5.643.019-8.464-.224-1.543-.133-3.122-.044-4.671-.044-3.068 0-6.216-.053-9.259.395-.914.134-1.889.044-2.813.044-.422 0-.81-.216-1.233-.269-.966-.12-1.675-.62-2.321-1.267-.343-.343-.483-.568-.483-1.058 0-.305-.008-.612 0-.917.007-.252.188-.387.263-.614M222.221 20.946v3.776c0 1.37.607 2.513.915 3.827.721 3.07 1.368 6.35 2.746 9.205.862 1.784 1.284 3.787 2.302 5.505 1.155 1.95 2.612 3.988 4.055 5.733 1.994 2.411 4.12 4.76 5.887 7.311 1.31 1.892 3.318 3.301 3.318 5.721 0 2.785-3.314 4.802-5.035 6.522-2.279 2.28-4.652 4.42-6.509 7.095-2.049 2.95-3.469 6.942-4.424 10.374-.681 2.445-.909 5.148-2.391 7.247-.3.426-1.595.694-2.047.801-3.027.717-6.22 1.099-9.319 1.233-3.917.17-8.233.39-12.103-.432-2.611-.555-4.381-1.606-6.586-2.975-3.112-1.932-5.026-4.34-7.094-7.336-2.11-3.056-4.165-6.16-5.595-9.599-1.317-3.168-1.904-6.377-2.237-9.79-.352-3.603-.44-7.97.407-11.48 1.757-7.28 4.312-14.467 7.094-21.423.912-2.28 1.78-4.864 3.445-6.738 1.237-1.39 3.134-2.314 4.616-3.433 3.169-2.394 7.22-3.662 11.162-3.662 2.975 0 5.93-.686 8.9-.686 2.98 0 10.608-.482 8.493 4.806m34.148 112.797c6.945 0 14.082.75 20.689-1.802 2.067-.799 4.119-1.581 6.066-2.662 1.823-1.013 3.493-2.22 5.2-3.405 2.258-1.568 5.049-2.572 7.043-4.512 1.462-1.422 2.765-2.895 3.783-4.677 1.076-1.883 1.558-4.456 1.912-6.582.153-.918.397-1.79.495-2.724.069-.65.331-1.611.055-2.242-.638-1.458-2.183-2.666-3.618-3.336-.954-.445-1.808-1.28-2.689-1.857-1.472-.963-2.984-1.966-4.333-3.095-1.781-1.49-3.404-2.859-4.794-4.732-1.147-1.546-2.531-3.78-4.677-3.81-.557-.008-1.345-.159-1.74.302-.172.2-.642.344-.867.51-.48.352-.982.674-1.458 1.03-1.508 1.132-3.203 2.188-4.849 3.103-1.787.992-3.522 2.064-5.296 3.074-1.829 1.042-4.17 1.255-6.218 1.637-1.879.351-3.784.248-5.688.248-1.986 0-3.91-.075-5.881-.275-1.743-.177-3.496-.767-5.124-1.41-1.364-.54-2.722-1.33-4.175-1.596-.668-.123-1.325-.29-1.987-.44-2.014-.454-4.195-1.067-6.232-.303-1.802.676-3.311 2.403-4.615 3.749-1.447 1.493-2.045 3.705-2.077 5.75-.015.925-.124 1.839-.124 2.772 0 1.867.262 3.666.557 5.502.376 2.338 1.215 5.208 2.744 7.071.843 1.025 1.942 1.893 2.889 2.826.924.912 2.054 1.634 3.164 2.298 1.381.825 2.637 1.896 4.092 2.6 1.525.737 3.018 1.613 4.629 2.159.82.279 1.62.618 2.449.867.541.162 1.317.322 1.788.619 1.816 1.143 3.818 1.507 5.853 2.043.666.175 1.296.273 1.919.584.301.151 1.122.694 1.238.344m-14.368 1.93c1.088.03 1.892.369 2.859.832 1.447.694 2.85 1.457 4.377 1.966 3.854 1.284 7.941 2.102 11.951 2.708 3.256.492 6.58.311 9.839-.045 1.77-.194 3.501-.475 5.215-.968 2.967-.853 5.831-2.214 8.685-3.38 1.969-.804 3.923-1.739 6.048-2.056.845-.126 2.314-.305 3.069.241.979.707 1.764 2.015 2.427 2.999a13.561 13.561 0 001.946 2.306c.718.68 1.522 1.215 2.186 1.956.837.933 1.599 1.817 2.147 2.959.792 1.653.496 3.914.446 5.671-.043 1.512-.743 2.797-1.349 4.148-1.229 2.741-2.019 6.291-4.443 8.284-.524.43-1.041.912-1.705 1.123-2.695.858-5.491 1.529-8.304 1.851-4.542.519-9.124.917-13.691 1.138-3.435.166-6.894.026-10.33-.045a98.982 98.982 0 01-7.833-.456c-2.448-.247-4.896-.312-7.342-.587-1.204-.136-2.416-.154-3.62-.276-1.154-.117-2.301-.314-3.46-.381-2.297-.133-4.766-.271-6.78-1.52-1.041-.645-1.813-1.991-2.432-3.003a19.21 19.21 0 01-2.072-4.664c-.496-1.698-.832-3.51-.832-5.281 0-3.986 2.36-7.032 4.338-10.29.92-1.516 2.626-3.902 4.553-4.237.498-.087.877-.361 1.399-.361h2.367c.201 0 .412.017.612-.005.206-.023.332-.176.542-.176M110.28 49.027c2.484 0 4.829.243 7.241.91 2.107.584 3.92 1.816 5.867 2.772 2.18 1.07 4.664 1.98 6.655 3.378.751.528 1.422.836 2.093 1.507.898.898 1.851 1.767 2.701 2.71 2.83 3.145 3.654 7.435 5.573 11.106a23.936 23.936 0 005.107 6.655c1.89 1.739 3.692 2.66 6.048 3.55 1.649.623 3.645-.076 5.361.223 2.803.487 5.708-.158 8.516.505 3.225.762 5.516 2.757 7.97 4.916 5.086 4.473 9.488 9.72 15.08 13.623 4.258 2.972 8.852 4.854 13.634 6.767a60.072 60.072 0 004.824 1.679c2.295.696 3.469 1.692 4.795 3.742 1.687 2.61 2.918 5.461 4.723 8 .778 1.096 1.428 2.359 1.952 3.591.879 2.068 1.609 4.225 2.276 6.372.531 1.714.455 3.502.455 5.279 0 3.201-.535 5.245-3.469 6.635-1.719.814-3.588.931-5.452.931h-25.599c-3.623 0-7.249.036-10.873 0-2.625-.027-5.826-.304-8.212-1.497-3.714-1.857-5.775-6.408-7.525-9.973-1.235-2.515-2.926-4.952-4.774-7.059-2.72-3.103-5.642-6.448-9.103-8.739-1.54-1.02-2.978-2.107-4.632-2.953-.97-.497-1.906-1.266-2.933-1.639-1.431-.52-2.746-1.875-4.046-2.65-2.301-1.372-4.801-2.535-6.857-4.278-3.23-2.737-5.953-6.05-8.84-9.133-2.044-2.183-4.167-4.4-5.987-6.777-2.686-3.506-5.799-7.395-7.1-11.661-1-3.276-1.263-6.66-.567-10.023.463-2.24 1.226-4.55 1.275-6.858.046-2.226 0-4.458 0-6.685 0-1.515.261-1.822 1.537-2.741.528-.38.72-.728 1.375-.728.533 0 .194-.37.547-.546m-68.885 47.55v-4.779c0-1.494-.164-2.645.75-3.874 1.305-1.758 3.261-2.909 5.12-4.01 1.417-.84 2.9-1.65 4.475-2.15 1.363-.434 3.008-.7 4.417-.853 2.552-.278 5.053-.712 7.613-.898 4.33-.314 8.802-.923 12.638-3.08 2.012-1.132 4.172-1.935 6.309-2.79 1.7-.68 3.518-1.598 5.353-1.834 1.216-.156 2.526-.174 3.539.562 1.216.885 2.282 2.086 3.422 3.074 1.127.977 1.876 2.125 2.738 3.313.6.825 1.076 1.734 1.68 2.557.595.812 1.37 1.618 1.859 2.499 2.183 3.93 5.624 6.948 8.085 10.687 1.663 2.527 3.371 5.383 3.371 8.492 0 .565.058 1.141-.123 1.685-.224.671-.759 1.246-1.13 1.834-.317.502-.632.552-1.098.865-.695.468-1.443.946-2.247 1.195-1.903.591-4.17.664-6.154.517-1.559-.116-3.166-.78-4.708-1.066-1.141-.211-2.435-.601-3.538-.968-2.024-.675-4.14-1.183-6.225-1.654-1.582-.357-3.115-.846-4.702-1.188-1.484-.32-2.996-.625-4.455-1.046-2.322-.669-4.736-.947-7.11-1.343-1.646-.274-3.266-.698-4.914-.956-1.715-.268-3.444-.479-5.153-.781-2.177-.384-4.391-.408-6.574-.691-2.443-.317-4.878-.514-7.258-1.201-1.196-.346-2.497-.484-3.655-.898-.971-.346-2.093-.418-2.093-1.685m9.124 48.305H46.03c-.722 0-1.221.368-1.798.77-.56.391-1.106.817-1.606 1.283-.778.724-1.42 1.685-1.746 2.707-.205.644-.37 1.308-.37 1.987 0 .654-.087 1.369.122 1.996.451 1.353 1.395 2.668 2.318 3.739.764.887 1.586 1.563 2.677 2.006.59.239 1.13.549 1.706.816.809.377 1.68.59 2.551.761.566.11 1.082.238 1.66.238.403 0 .928.084 1.315-.037.65-.201 1.261-.62 1.825-.988.489-.319.805-.801 1.18-1.243.626-.737 1.34-1.509 1.702-2.413.355-.882.615-1.861.615-2.816 0-.409.062-.904-.033-1.312-.11-.474-.322-.894-.532-1.329-.145-.301-.436-.497-.638-.751-.256-.32-.503-.643-.76-.965-.575-.718-1.315-1.248-1.964-1.897-.452-.452-.865-.862-1.368-1.256-.235-.184-.498-.377-.714-.582-.477-.452-1.484-.336-2.083-.535m43.817 22.183c-2.625 0-5.382.243-7.964-.283-1.027-.209-2.036-.523-3.073-.688-.657-.104-1.314-.111-1.967-.221-1.037-.177-2.061-.299-3.091-.523-.614-.133-1.257-.126-1.88-.172-.5-.037-.995-.215-1.494-.215-.574 0-1.2-.256-1.77-.356-.68-.12-1.345-.352-2.016-.504-.89-.202-1.832-.28-2.74-.363-1.257-.114-2.442-.726-3.54-1.297-1.3-.674-1.74-1.938-1.857-3.318-.14-1.672.396-3.221.695-4.837.236-1.274.083-2.763.055-4.062-.037-1.688-.919-3.156-1.512-4.665a7.301 7.301 0 01-.473-3.282c.029-.301.641-.649.836-.829 1.27-1.176 2.914-1.386 4.468-1.955 1.606-.588 3.291-.814 4.953-1.167.773-.165 1.681-.357 2.465-.357.542 0 1.034-.13 1.554-.276 1.037-.292 2.191-.446 3.251-.658.99-.198 1.96-.397 2.932-.664 1.434-.392 2.836-1.278 4.154-1.942 1.368-.688 2.713-1.43 4.087-2.101.764-.374 1.675-.729 2.373-1.217.589-.413 1.288-.638 1.997-.75.554-.088 1.733-.207 2.188.172.877.731 1.731 1.665 2.458 2.544 1.046 1.267 1.65 2.638 2.44 4.069.601 1.089.948 2.261 1.456 3.392a29.932 29.932 0 011.832 5.507c.497 2.17.967 4.329 1.297 6.526.408 2.726.608 5.385.608 8.143 0 1.071-.445 2.299-.934 3.251-.443.862-.929 1.401-1.555 2.108-1.032 1.167-2.465 1.584-3.866 2.207-.692.307-1.532.221-2.274.221h-.934c-.371 0-.558-.141-.89-.215-.893-.198-1.603-.817-2.49-1.112m16.815-25.445c-.906-2.672-1.76-5.422-3.208-7.854-1.057-1.776-2.291-3.316-3.706-4.812-1.176-1.243-2.642-2.244-3.878-3.435-1.404-1.355-3.033-2.342-4.51-3.59-1.031-.87-.789-2.032-.406-3.158.129-.381.243-1.005.498-1.316.285-.349.61-.549.94-.842.701-.623 2.166-.954 3.097-.989.496-.019.999-.169 1.494-.227.576-.068 1.196-.047 1.763-.16 2.878-.576 5.89-.542 8.629-1.77 2.365-1.06 4.911-1.715 7.528-1.715 1.148 0 2.141.059 3.264.332 2.061.501 4.304.406 6.305 1.106 2.206.772 4.244 1.796 6.244 2.987.827.493 1.718.891 2.501 1.444 1.063.75 1.923 1.751 2.864 2.637 1.015.955 1.845 2.24 2.717 3.337.638.804 1.419 1.461 2.046 2.268.757.973 1.527 1.916 2.237 2.925 1.04 1.479 2.11 2.754 2.686 4.48.263.79.568 1.522.694 2.354.159 1.05.429 2.559-.037 3.565-.79 1.705-2.208 2.174-3.595 3.275-1.722 1.368-3.783 2.477-5.746 3.472-1.659.842-3.489 1.53-5.31 1.93-2.1.462-4.107 1.117-6.256 1.365-1.748.2-3.537.467-5.298.467-1.87 0-3.723.331-5.592.331-.98 0-1.959.129-2.87-.27-.71-.31-1.638-.648-2.219-1.168-1.087-.973-1.64-2.112-2.298-3.429-.271-.541-.246-1.053-.246-1.653 0-.331.003-1.223-.443-1.223m47.236 7.968c-3.923 0-8.028.377-11.794 1.549-3.664 1.14-7.499 1.811-11.216 2.741-2.68.67-5.382 1.254-8.075 1.843-2.001.438-3.994.558-5.974 1.082a4.335 4.335 0 00-.94.356c-.409.221-1.14.169-1.604.283-1.32.325-2.38 1.086-3.374 1.881-.207.165-.055 1.248-.055 1.487 0 .632.091 1.122.245 1.721.431 1.675 2.382 3.097 4.063 3.097.653 0 1.285.212 1.936.221.759.011 1.52 0 2.28 0 1.117 0 2.246.047 3.361-.024 2.406-.154 4.755-.606 7.142-.861 5.438-.58 10.905-.442 16.365-.442 3.21 0 6.572.332 9.741.86 1.896.316 3.716.467 5.642.467.675 0 1.373.053 2.047-.006.501-.043.896-.439 1.382-.547 2.067-.459 2.826-2.389 2.876-4.314.055-2.082.194-4.212.468-6.281.117-.889-.333-1.472-.75-2.231-.499-.906-1.329-1.507-2.034-2.212-.886-.886-1.956-1.053-3.079-1.444-1.664-.579-3.564.165-5.114.719-.781.279-1.728-.113-2.532.11-.476.133-.982.121-1.45.277m67.48 14.932c0-1.739.219-3.618-.222-5.31-.353-1.359-1.302-2.475-1.825-3.761-1.004-2.471-3.065-5.365-5.58-6.465-.804-.352-1.747-.393-2.606-.393-1.178 0-2.365-.111-3.558-.111-1.818 0-3.654-.077-5.47.006-1.768.08-3.528.522-5.298.547-3.571.051-7.155.553-10.73.553-.442 0-.897.104-1.327.197-.582.126-1.287.024-1.881.024h-3.319c-1.567 0-2.49.48-3.318 1.746-.502.767-.764 1.65-1.168 2.458-.297.594-.541 1.397-.602 2.053-.059.636-.535 1.225-.553 1.868-.024.843-.221 1.656-.221 2.495 0 .891-.245 2.148.055 2.987.183.513.586.764 1.051.971.716.318 1.473.635 2.206.965 1.543.694 3.709.584 5.365.608 3.364.049 6.708.221 10.079.221 1.746 0 3.534.115 5.273-.024 2.447-.196 4.887-.531 7.338-.645 2.045-.096 4.057-.216 6.109-.216 1.326 0 2.685-.085 3.994.166 1.446.278 2.835.277 4.327.277.45 0 .865-.151 1.272-.332.299-.133.322-.561.547-.774.19-.179.476-.13.172-.332M99.454 38.066c0 1.512.038 2.971.254 4.471.165 1.145.349 2.286.479 3.435.16 1.404.444 2.806.522 4.217.134 2.414.049 4.903-.317 7.293-.212 1.38-.479 2.737-.652 4.125-.114.91-.265 1.818-.413 2.722-.072.442-.221 1.396-.603 1.693-.124.096-.366.112-.511.166-.24.089-.47.222-.713.3-.312.1-.761.014-1.09.014-.337 0-.64-.028-.94-.205-.673-.397-1.058-1.523-1.348-2.193-.69-1.595-1.229-3.442-1.428-5.166-.263-2.28-.1-4.575-.448-6.845-.224-1.468-.48-2.903-.913-4.326-.487-1.604-1.518-3.005-1.971-4.623-.232-.83-.458-2.263.067-3.05.392-.588.853-1.117 1.252-1.696.157-.23.42-.33.648-.473.325-.201.632-.427.98-.585.526-.239 1.276-.281 1.849-.29.36-.005.721 0 1.082 0 .706 0 1.445-.063 2.148.004.256.025.496.171.768.187.118.007.288.119.378.19.17.138.73.267.73.508m-16.77-23.511c-.894 0-1.47.042-2.257.508-1.193.706-2.375 1.427-3.634 2.02-2.558 1.203-5.18 2.05-7.905 2.764-.797.209-1.534.643-2.327.826-1.252.289-2.476.666-3.726.966-1.486.357-3.007.491-4.508.746-1.314.222-2.554.59-3.818.982-1.886.587-3.862 1.046-5.68 1.825-1.848.792-3.497 2.257-4.822 3.748-.56.629-.88 1.7-.88 2.527 0 1.023-.171 2.222.443 3.115.775 1.128 1.883 1.86 3.175 2.306.864.298 1.743.273 2.624.507 3.894 1.035 8.01 1.017 11.976 1.653 3.047.488 5.965 1.305 8.904 2.187 1.81.543 3.6.926 5.432 1.36.824.195 1.667.243 2.51.243.575 0 1.23.096 1.766-.146.427-.192.643-.426.972-.772.917-.963 2-1.898 2.446-3.185.372-1.073.928-2.173 1.447-3.186 1.334-2.602 4.002-4.902 6.744-5.875 1.211-.43 2.564-.452 3.829-.616.96-.123 2.1-.022 2.937-.626 1.794-1.296 1.944-3.89 1.944-5.907 0-1.873-.09-3.31-1.9-4.276-.917-.49-1.774-1.003-2.711-1.453-.96-.46-2.032-.72-3.073-.934-1.09-.224-2.29-.392-3.342-.724-1.14-.358-2.366-.21-3.51-.464-.398-.088-2.862-.055-2.862-.41m232.704 52.405c2.28 1.552 2.944 4.791 3.954 7.191 1.231 2.924 1.84 6.382 1.921 9.537.048 1.838.23 3.893-.17 5.695-.41 1.843-.993 3.591-1.707 5.338-1.272 3.116-4.311 4.72-7.474 5.407-3.242.705-6.88.873-9.951-.628-1.271-.622-2.638-1.366-3.706-2.302-.954-.836-1.89-1.783-2.788-2.681-1.877-1.877-2.744-4.541-3.267-7.06-.52-2.502-.563-5.446.039-7.948.331-1.375.786-2.639 1.487-3.876.976-1.721 1.751-3.626 3.272-4.944 1.11-.962 2.393-1.58 3.866-1.799 1.37-.203 2.733-.175 4.13-.175 1.051 0 2.152-.277 3.12-.653.431-.168.889-.198 1.307-.4a6.967 6.967 0 011.053-.42c.782-.223 1.643-.37 2.457-.37.666 0 1.234-.027 1.843.244.203.09.508.144.683.302.126.114.222.257.37.332" stroke="#FFA1C2" stroke-width="4" stroke-linecap="round" stroke-linejoin="round"/><path d="M245.27 76.966c1.523 0 3.054.136 4.515-.35 2.474-.826 4.989-1.41 7.411-2.4 1.837-.75 3.597-1.485 5.305-2.515 2.102-1.269 4.137-2.562 6.046-4.11 2.971-2.412 6.177-4.047 9.702-5.456 1.6-.64 3.236-1.609 4.983-1.736 1.06-.078 2.73-.476 3.613.317.636.57 1.411 1.27 1.74 2.077.342.839 1.14 1.592 1.79 2.194.7.648 1.285 1.447 1.75 2.277.264.472.207 1.09.185 1.609-.022.527-.512 1.074-.829 1.462-.625.768-1.43 1.277-2.213 1.863-1.717 1.284-3.286 3.075-4.593 4.773-2.648 3.442-4.957 7.181-8.181 10.127-1.237 1.13-2.455 2.327-3.754 3.383-1.169.95-2.177 2.026-3.569 2.653-4.133 1.86-8.869 2.338-13.35 2.35-1.94.005-3.855-.118-5.763-.483-1.327-.254-2.671-.76-3.954-1.18-1.368-.447-2.863-.776-3.973-1.76-.494-.438-.905-.978-1.375-1.443-.635-.628-1.259-1.22-1.824-1.911-.668-.819-1.383-1.644-1.56-2.706-.269-1.61-.298-3.217.219-4.769.241-.723.777-1.292 1.049-1.984.211-.538.597-.583 1.014-.965.352-.325 1.016-.442 1.433-.663.394-.21.807-.39 1.248-.39.771 0 1.541-.088 2.321-.088m-79.104-10.894c0-3.332-.102-6.682.141-10.009.146-1.992.756-4.05 1.361-5.949 1.444-4.53 2.126-9.556 4.648-13.674.748-1.223 1.456-2.455 2.223-3.666 1.248-1.971 2.841-3.625 4.179-5.518 1.465-2.073 2.905-5.255 2.699-7.822-.151-1.887-2.633-3.26-4.134-3.823-2.808-1.053-5.607-.832-8.589-.803-3.919.04-7.655 1.88-11.466 2.573-1.853.337-3.634.372-5.517.372-2.53 0-5.027.402-7.57.402h-8.968c-2.968 0-5.921-.268-8.894-.268-4.335 0-8.926-.442-13.146.699-1.816.49-3.024 1.566-4.313 2.855-.79.79-1.499 1.924-1.785 3.004-.305 1.155-.163 2.425-.163 3.622 0 3.199 1.469 6.7 4.312 8.425 4.068 2.467 8.982 3.374 13.579 4.357 3.333.713 6.703 1.137 9.919 2.335a55.716 55.716 0 018.455 4.015c2.516 1.457 4.182 3.896 5.257 6.514 1.518 3.697 2.7 7.442 3.517 11.348.31 1.478.697 3.232 1.807 4.342 1.18 1.18 2.505 1.855 4.045 2.424 1.588.587 3.509.28 4.923-.505.797-.443 2.49-2.014 2.543-2.975.054-.972.937-1.864.937-2.81" stroke="#FFA1C2" stroke-width="4" stroke-linecap="round" stroke-linejoin="round"/></svg>